<?xml version="1.0" encoding="UTF-8"?><svg id="Layer_2" xmlns="http://www.w3.org/2000/svg" viewBox="0 0 307.57 313.75"><defs><style>.cls-1{fill:#fff;}.cls-2{fill:#ed1c24;}.cls-3{fill:#1a5f30;}.cls-4{fill:#d71920;}.cls-5{fill:none;stroke:#ed1c24;stroke-miterlimit:10;stroke-width:5.2px;}</style></defs><g id="Layer_1-2"><path class="cls-3" d="M200.68,16.31l20.91,20.79s27.47-15.77,27.21-16.55c-.25-.78-26.1-13.77-26.1-13.77l-22.02,9.53Z"/><path class="cls-3" d="M105.17,16.31l-20.91,20.79s-27.47-15.77-27.21-16.55c.25-.78,26.1-13.77,26.1-13.77l22.02,9.53Z"/><path class="cls-3" d="M155.89,0c26.77,13.02,49.26,31.95,65.25,57.21v220.79s-28.72,12.45-65.3,12.45-68.64-12.45-68.64-12.45V57.21C103.32,31.96,126.01,12.33,153.32,0h2.58Z"/><path class="cls-3" d="M228.68,55.16c19.11-22.57,49.12-35.7,78.86-33.81l.03,152c-3.01,43.71-38.29,83.27-78.89,103.11V55.16Z"/><path class="cls-3" d="M78.89,276.46C39.52,255.24,2.98,217.06,0,173.35L.03,21.35c29.77-1.93,59.76,11.19,78.86,33.81v221.3Z"/><path class="cls-1" d="M153.86,311.39c-26.22,0-50.96-10.3-69.65-29-18.72-18.73-29.03-43.43-29.03-69.55l.31-130.82,196.9.18v130.75c0,26.21-10.26,50.92-28.9,69.56-18.68,18.62-43.4,28.88-69.63,28.88"/><path class="cls-4" d="M57.84,84.38l192.19.18v128.39c0,26.51-10.81,50.49-28.21,67.9-17.46,17.41-41.49,28.19-67.96,28.19s-50.51-10.83-67.98-28.31c-17.46-17.47-28.34-41.51-28.34-67.88v-.06l.3-128.4ZM53.14,79.66v4.71s-.31,128.4-.31,128.4v.07c0,26.76,10.55,52.05,29.72,71.22,19.14,19.14,44.46,29.69,71.32,29.69s52.17-10.5,71.29-29.56c19.09-19.1,29.6-44.39,29.6-71.24V79.85h-4.71s-192.19-.18-192.19-.18h-4.71Z"/><polygon class="cls-2" points="98.63 156.71 204.45 156.71 169.17 167.74 169.17 264.74 204.45 275.76 98.63 275.76 133.9 264.74 133.9 167.74 98.63 156.71"/><polygon class="cls-2" points="211.06 163.33 211.06 269.15 200.04 233.87 103.04 233.87 92.01 269.15 92.01 163.33 103.04 198.6 200.04 198.6 211.06 163.33"/><polygon class="cls-1" points="142.68 167.74 160.36 167.74 160.36 207.42 200.04 207.42 200.04 225.06 160.36 225.06 160.36 264.74 142.68 264.74 142.68 225.06 103.03 225.06 103.03 207.42 142.68 207.42 142.68 167.74"/><path class="cls-5" d="M106.52,105.51h19.94v12.12h14.54v-12.4l20.42.08v12.4h14.62v-12.47h20.5l-.08,28.06c0,4.43-4.13,7.29-8.91,7.29h-71.74c-4.84,0-9.3-3.33-9.3-7.34v-27.73Z"/></g></svg>