<?xml version="1.0" encoding="UTF-8"?>
<svg id="Layer_2" xmlns="http://www.w3.org/2000/svg" version="1.1" viewBox="0 0 447.8 465.5">
  <!-- Generator: Adobe Illustrator 29.4.0, SVG Export Plug-In . SVG Version: 2.1.0 Build 152)  -->
  <defs>
    <style>
      .st0 {
        fill: none;
        stroke: #ed1c24;
        stroke-miterlimit: 10;
        stroke-width: 5.2px;
      }

      .st1 {
        fill: #fff;
      }

      .st2, .st3 {
        isolation: isolate;
      }

      .st4 {
        fill: #1a5f30;
      }

      .st3 {
        fill: #231f20;
        font-family: Mundial-Bold, Mundial;
        font-size: 76.5px;
        font-weight: 700;
      }

      .st5 {
        fill: #ed1c24;
      }

      .st6 {
        fill: #d71920;
      }
    </style>
  </defs>
  <g id="Layer_1-2">
    <g>
      <path class="st4" d="M270.8,16.3l20.9,20.8s27.5-15.8,27.2-16.5c-.2-.8-26.1-13.8-26.1-13.8,0,0-22,9.5-22,9.5Z"/>
      <path class="st4" d="M175.3,16.3l-20.9,20.8s-27.5-15.8-27.2-16.5c.2-.8,26.1-13.8,26.1-13.8,0,0,22,9.5,22,9.5Z"/>
      <path class="st4" d="M226,0c26.8,13,49.3,32,65.3,57.2v220.8s-28.7,12.5-65.3,12.5-68.6-12.5-68.6-12.5V57.2C173.4,32,196.1,12.3,223.4,0h2.6Z"/>
      <path class="st4" d="M298.8,55.2c19.1-22.6,49.1-35.7,78.9-33.8v152c-3,43.7-38.3,83.3-78.9,103.1V55.2Z"/>
      <path class="st4" d="M149,276.5c-39.4-21.2-75.9-59.4-78.9-103.1V21.3c29.8-1.9,59.8,11.2,78.9,33.8v221.3Z"/>
      <path class="st1" d="M224,311.4c-26.2,0-51-10.3-69.7-29-18.7-18.7-29-43.4-29-69.6l.3-130.8,196.9.2v130.8c0,26.2-10.3,50.9-28.9,69.6-18.7,18.6-43.4,28.9-69.6,28.9"/>
      <path class="st6" d="M128,84.4l192.2.2v128.4c0,26.5-10.8,50.5-28.2,67.9-17.5,17.4-41.5,28.2-68,28.2s-50.5-10.8-68-28.3c-17.5-17.5-28.3-41.5-28.3-67.9h0c0,0,.3-128.5.3-128.5h0ZM123.3,79.7v4.7l-.3,128.4h0c0,26.8,10.6,52.1,29.7,71.3,19.1,19.1,44.5,29.7,71.3,29.7s52.2-10.5,71.3-29.6c19.1-19.1,29.6-44.4,29.6-71.2V79.8h-4.7l-192.2-.2h-4.7Z"/>
      <polygon class="st5" points="168.7 156.7 274.6 156.7 239.3 167.7 239.3 264.7 274.6 275.8 168.7 275.8 204 264.7 204 167.7 168.7 156.7"/>
      <polygon class="st5" points="281.2 163.3 281.2 269.1 270.2 233.9 173.2 233.9 162.1 269.1 162.1 163.3 173.2 198.6 270.2 198.6 281.2 163.3"/>
      <polygon class="st1" points="212.8 167.7 230.5 167.7 230.5 207.4 270.2 207.4 270.2 225.1 230.5 225.1 230.5 264.7 212.8 264.7 212.8 225.1 173.2 225.1 173.2 207.4 212.8 207.4 212.8 167.7"/>
      <path class="st0" d="M176.6,105.5h19.9v12.1h14.5v-12.4h20.4v12.5h14.6v-12.5h20.5v28.1c0,4.4-4.2,7.3-9,7.3h-71.7c-4.8,0-9.3-3.3-9.3-7.3v-27.7h0Z"/>
    </g>
    <g class="st2">
      <text class="st3" transform="translate(102.1 445.5) scale(.9 1)"><tspan x="0" y="0">F</tspan></text>
      <text class="st3" transform="translate(139.9 445.5) scale(.9 1)"><tspan x="0" y="0">O</tspan></text>
      <text class="st3" transform="translate(191.5 445.5) scale(.9 1)"><tspan x="0" y="0">R</tspan></text>
      <text class="st3" transform="translate(236.8 445.5) scale(.9 1)"><tspan x="0" y="0">U</tspan></text>
      <text class="st3" transform="translate(284.5 445.5) scale(.9 1)"><tspan x="0" y="0">M</tspan></text>
    </g>
    <g class="st2">
      <text class="st3" transform="translate(0 384.4) scale(.9 1)"><tspan x="0" y="0">P</tspan></text>
      <text class="st3" transform="translate(44.5 384.4) scale(.9 1)"><tspan x="0" y="0">O</tspan></text>
      <text class="st3" transform="translate(96.1 384.4) scale(.9 1)"><tspan x="0" y="0">R</tspan></text>
      <text class="st3" transform="translate(142.2 384.4) scale(.9 1)"><tspan x="0" y="0">T</tspan></text>
      <text class="st3" transform="translate(179.9 384.4) scale(.9 1)"><tspan x="0" y="0">U</tspan></text>
      <text class="st3" transform="translate(227.4 384.4) scale(.9 1)"><tspan x="0" y="0">G</tspan></text>
      <text class="st3" transform="translate(278 384.4) scale(.9 1)"><tspan x="0" y="0">U</tspan></text>
      <text class="st3" transform="translate(325.7 384.4) scale(.9 1)"><tspan x="0" y="0">E</tspan></text>
      <text class="st3" transform="translate(365.7 384.4) scale(.9 1)"><tspan x="0" y="0">S</tspan></text>
      <text class="st3" transform="translate(407.1 384.4) scale(.9 1)"><tspan x="0" y="0">E</tspan></text>
    </g>
  </g>
</svg>