<?xml version="1.0" encoding="UTF-8"?><svg id="Layer_2" xmlns="http://www.w3.org/2000/svg" viewBox="0 0 465.51 115.86"><defs><style>.cls-1{fill:none;stroke:#ed1c24;stroke-miterlimit:10;stroke-width:1.63px;}.cls-2{letter-spacing:-.03em;}.cls-3{letter-spacing:0em;}.cls-4{letter-spacing:0em;}.cls-5{letter-spacing:-.02em;}.cls-6{letter-spacing:-.01em;}.cls-7{fill:#fff;}.cls-8{fill:#ed1c24;}.cls-9{letter-spacing:0em;}.cls-10{letter-spacing:0em;}.cls-11{letter-spacing:-.01em;}.cls-12{letter-spacing:0em;}.cls-13{fill:#231f20;font-family:Mundial-Bold, Mundial;font-size:55.11px;font-weight:700;}.cls-14{letter-spacing:-.01em;}.cls-15{letter-spacing:-.01em;}.cls-16{fill:#d71920;}.cls-17{fill:#006a41;}.cls-18{letter-spacing:-.01em;}</style></defs><g id="Layer_1-2"><path class="cls-17" d="M62.83,9.68l6.55,6.51s8.6-4.94,8.52-5.18c-.08-.24-8.17-4.31-8.17-4.31l-6.89,2.98Z"/><path class="cls-17" d="M32.93,9.68l-6.55,6.51s-8.6-4.94-8.52-5.18c.08-.24,8.17-4.31,8.17-4.31l6.9,2.98Z"/><path class="cls-17" d="M48.81,4.57c8.38,4.08,15.42,10,20.43,17.91v69.12s-8.99,3.9-20.45,3.9-21.49-3.9-21.49-3.9V22.49c5.05-7.91,12.15-14.05,20.7-17.91h.81Z"/><path class="cls-17" d="M71.6,21.85c5.98-7.07,15.38-11.18,24.69-10.59v47.59c-.93,13.68-11.98,26.07-24.69,32.28V21.85Z"/><path class="cls-17" d="M24.7,91.13C12.37,84.49.93,72.53,0,58.85V11.26c9.33-.61,18.72,3.5,24.7,10.59v69.29Z"/><path class="cls-7" d="M48.17,102.07c-8.21,0-15.95-3.22-21.81-9.08-5.86-5.86-9.09-13.6-9.09-21.78l.1-40.96,61.64.06v40.93c0,8.21-3.21,15.94-9.05,21.78-5.85,5.83-13.59,9.04-21.8,9.04"/><path class="cls-16" d="M18.11,30.99l60.17.05v40.2c0,8.3-3.38,15.81-8.83,21.26-5.47,5.45-12.99,8.83-21.28,8.83s-15.82-3.39-21.28-8.86c-5.47-5.47-8.87-13-8.87-21.25v-.02l.1-40.2ZM16.64,29.52v1.47s-.1,40.2-.1,40.2c0,8.4,3.3,16.32,9.3,22.32,5.99,5.99,13.92,9.29,22.33,9.29s16.33-3.29,22.32-9.26c5.98-5.98,9.27-13.9,9.27-22.3V29.57h-1.47s-60.17-.06-60.17-.06h-1.47Z"/><polygon class="cls-8" points="30.88 53.64 64.01 53.64 52.97 57.09 52.97 87.46 64.01 90.91 30.88 90.91 41.92 87.46 41.92 57.09 30.88 53.64"/><polygon class="cls-8" points="66.08 55.71 66.08 88.84 62.63 77.8 32.26 77.8 28.81 88.84 28.81 55.71 32.26 66.75 62.63 66.75 66.08 55.71"/><polygon class="cls-7" points="44.67 57.09 50.2 57.09 50.2 69.51 62.63 69.51 62.63 75.03 50.2 75.03 50.2 87.46 44.67 87.46 44.67 75.03 32.26 75.03 32.26 69.51 44.67 69.51 44.67 57.09"/><path class="cls-1" d="M33.35,37.61h6.24v3.8h4.55v-3.88l6.39.02v3.88h4.58v-3.9h6.42l-.02,8.79c0,1.39-1.29,2.28-2.79,2.28h-22.46c-1.52,0-2.91-1.04-2.91-2.3v-8.68Z"/><text class="cls-13" transform="translate(105.61 50.92) scale(1 1.11)"><tspan class="cls-10" x="0" y="0">P</tspan><tspan class="cls-18" x="35.78" y="0">O</tspan><tspan class="cls-4" x="77.25" y="0">R</tspan><tspan class="cls-5" x="114.31" y="0">T</tspan><tspan class="cls-6" x="144.7" y="0">UG</tspan><tspan class="cls-11" x="223.56" y="0">U</tspan><tspan class="cls-3" x="261.86" y="0">E</tspan><tspan class="cls-14" x="294.01" y="0">S</tspan><tspan class="cls-9" x="327.36" y="0">E</tspan></text><text class="cls-13" transform="translate(105.06 99.77) scale(1 1.11)"><tspan class="cls-2" x="0" y="0">F</tspan><tspan class="cls-18" x="30.45" y="0">O</tspan><tspan class="cls-12" x="71.92" y="0">R</tspan><tspan class="cls-15" x="108.37" y="0">U</tspan><tspan x="146.68" y="0">M</tspan></text></g></svg>