<?xml version="1.0" encoding="UTF-8"?>
<svg id="Layer_2" xmlns="http://www.w3.org/2000/svg" version="1.1" viewBox="0 0 465.5 115.9">
  <!-- Generator: Adobe Illustrator 29.4.0, SVG Export Plug-In . SVG Version: 2.1.0 Build 152)  -->
  <defs>
    <style>
      .st0 {
        font-family: Mundial-Bold, Mundial;
        font-size: 61.2px;
        font-weight: 700;
      }

      .st0, .st1 {
        fill: #fff;
      }

      .st0, .st2 {
        isolation: isolate;
      }

      .st3 {
        fill: none;
        stroke: #ed1c24;
        stroke-miterlimit: 10;
        stroke-width: 1.6px;
      }

      .st4 {
        fill: #006a41;
      }

      .st5 {
        fill: #ed1c24;
      }

      .st6 {
        fill: #d71920;
      }
    </style>
  </defs>
  <g id="Layer_1-2">
    <path class="st4" d="M62.8,9.7l6.6,6.5s8.6-4.9,8.5-5.2c0-.2-8.2-4.3-8.2-4.3l-6.9,3h0Z"/>
    <path class="st4" d="M32.9,9.7l-6.5,6.5s-8.6-4.9-8.5-5.2,8.2-4.3,8.2-4.3l6.9,3Z"/>
    <path class="st4" d="M48.8,4.6c8.4,4.1,15.4,10,20.4,17.9v69.1s-9,3.9-20.5,3.9-21.5-3.9-21.5-3.9V22.5c5.1-7.9,12.1-14.1,20.7-17.9h.8,0Z"/>
    <path class="st4" d="M71.6,21.9c6-7.1,15.4-11.2,24.7-10.6v47.6c-.9,13.7-12,26.1-24.7,32.3V21.9Z"/>
    <path class="st4" d="M24.7,91.1C12.4,84.5.9,72.5,0,58.8V11.3c9.3-.6,18.7,3.5,24.7,10.6v69.3h0Z"/>
    <path class="st1" d="M48.2,102.1c-8.2,0-16-3.2-21.8-9.1-5.9-5.9-9.1-13.6-9.1-21.8V30.2c.1,0,61.7,0,61.7,0v40.9c0,8.2-3.2,15.9-9.1,21.8-5.8,5.8-13.6,9-21.8,9"/>
    <path class="st6" d="M18.1,31h60.2v40.2c0,8.3-3.4,15.8-8.8,21.3-5.5,5.4-13,8.8-21.3,8.8s-15.8-3.4-21.3-8.9c-5.5-5.5-8.9-13-8.9-21.2h0s.1-40.2.1-40.2h0ZM16.6,29.5v41.7c-.1,8.4,3.2,16.3,9.2,22.3,6,6,13.9,9.3,22.3,9.3s16.3-3.3,22.3-9.3c6-6,9.3-13.9,9.3-22.3V29.6H18.1c0,0-1.5,0-1.5,0h0Z"/>
    <polygon class="st5" points="30.9 53.6 64 53.6 53 57.1 53 87.5 64 90.9 30.9 90.9 41.9 87.5 41.9 57.1 30.9 53.6"/>
    <polygon class="st5" points="66.1 55.7 66.1 88.8 62.6 77.8 32.3 77.8 28.8 88.8 28.8 55.7 32.3 66.8 62.6 66.8 66.1 55.7"/>
    <polygon class="st1" points="44.7 57.1 50.2 57.1 50.2 69.5 62.6 69.5 62.6 75 50.2 75 50.2 87.5 44.7 87.5 44.7 75 32.3 75 32.3 69.5 44.7 69.5 44.7 57.1"/>
    <path class="st3" d="M33.3,37.6h6.2v3.8h4.5v-3.9h6.4v3.9h4.6v-3.9h6.4v8.8c0,1.4-1.3,2.3-2.8,2.3h-22.5c-1.5,0-2.9-1-2.9-2.3v-8.7h0Z"/>
    <g class="st2">
      <text class="st0" transform="translate(105.6 50.9) scale(.9 1)"><tspan x="0" y="0">P</tspan></text>
      <text class="st0" transform="translate(141.4 50.9) scale(.9 1)"><tspan x="0" y="0">O</tspan></text>
      <text class="st0" transform="translate(182.9 50.9) scale(.9 1)"><tspan x="0" y="0">R</tspan></text>
      <text class="st0" transform="translate(219.9 50.9) scale(.9 1)"><tspan x="0" y="0">T</tspan></text>
      <text class="st0" transform="translate(250.3 50.9) scale(.9 1)"><tspan x="0" y="0">UG</tspan></text>
      <text class="st0" transform="translate(329.2 50.9) scale(.9 1)"><tspan x="0" y="0">U</tspan></text>
      <text class="st0" transform="translate(367.5 50.9) scale(.9 1)"><tspan x="0" y="0">E</tspan></text>
      <text class="st0" transform="translate(399.6 50.9) scale(.9 1)"><tspan x="0" y="0">S</tspan></text>
      <text class="st0" transform="translate(433 50.9) scale(.9 1)"><tspan x="0" y="0">E</tspan></text>
    </g>
    <g class="st2">
      <text class="st0" transform="translate(105.1 99.8) scale(.9 1)"><tspan x="0" y="0">F</tspan></text>
      <text class="st0" transform="translate(135.5 99.8) scale(.9 1)"><tspan x="0" y="0">O</tspan></text>
      <text class="st0" transform="translate(177 99.8) scale(.9 1)"><tspan x="0" y="0">R</tspan></text>
      <text class="st0" transform="translate(213.4 99.8) scale(.9 1)"><tspan x="0" y="0">U</tspan></text>
      <text class="st0" transform="translate(251.7 99.8) scale(.9 1)"><tspan x="0" y="0">M</tspan></text>
    </g>
  </g>
</svg>